#!OML:ASF H:\LiuWeirdWalks\Patient Classification 1\Patient 1\Session 1\male.ASF
:FULLY-SPECIFIED
:DEGREES
716
root 1.66086 17.9544 33.4773 4.65908 0.509446 -0.67605
lowerback 3.4449 -0.799981 -4.58887
upperback -1.96829 -1.19423 3.08508
thorax -3.81846 -0.432637 5.87803
lowerneck -23.4287 1.70734 4.83739
upperneck 24.1395 2.41227 -6.16946
head 11.9603 0.7006 -2.72425
rclavicle 1.59028e-015 -5.56597e-015
rhumerus -38.2855 -11.277 -72.5315
rradius 23.0583
rwrist 0.636001
rhand -17.3236 -1.00512
rfingers 7.12502
rthumb 8.92312 -30.7964
lclavicle 1.59028e-015 -5.56597e-015
lhumerus -35.6423 12.5773 82.2943
lradius 28.7523
lwrist 2.9753
lhand -17.0156 -7.99547
lfingers 7.12502
lthumb 9.22031 21.7829
rfemur -15.537 -4.99115 23.6574
rtibia 35.3794
rfoot -15.7149 -18.9438
rtoes -2.27796
lfemur -15.221 -0.720691 -21.3577
ltibia 31.5701
lfoot -13.6261 7.10991
ltoes -7.31795
717
root 1.6487 17.9598 33.4992 4.749 0.371095 -0.864245
lowerback 3.29849 -0.818097 -4.29577
upperback -1.9224 -1.19536 3.179
thorax -3.69026 -0.444754 5.80476
lowerneck -23.7107 1.79563 4.933
upperneck 24.2328 2.51432 -6.23871
head 12.0608 0.741533 -2.75311
rclavicle 1.963e-015 -3.93594e-014
rhumerus -38.1195 -11.1693 -72.5976
rradius 23.2505
rwrist 0.460366
rhand -17.1917 -1.10791
rfingers 7.12502
rthumb 9.05036 -30.8938
lclavicle 1.963e-015 -3.93594e-014
lhumerus -35.6577 13.1953 82.2414
lradius 27.9825
lwrist 2.89394
lhand -16.9909 -7.69337
lfingers 7.12502
lthumb 9.24416 22.084
rfemur -15.4518 -5.07053 23.8893
rtibia 35.1339
rfoot -15.612 -18.6871
rtoes -2.38261
lfemur -15.2605 -0.843799 -21.1335
ltibia 31.6412
lfoot -13.6611 7.51281
ltoes -7.25223
718
root 1.63603 17.9645 33.521 4.86391 0.25638 -1.05787
lowerback 3.12218 -0.838793 -3.99916
upperback -1.90338 -1.20024 3.27268
thorax -3.57292 -0.457504 5.7292
lowerneck -23.9329 1.86359 5.00796
upperneck 24.3548 2.59039 -6.27931
head 12.1588 0.773501 -2.77233
rclavicle 7.95139e-015 8.74653e-015
rhumerus -38.01 -10.9952 -72.6864
rradius 23.5032
rwrist 0.159855
rhand -17.0973 -1.19821
rfingers 7.12502
rthumb 9.14143 -30.9801
lclavicle 7.95139e-015 8.74653e-015
lhumerus -35.7134 13.689 82.2206
lradius 27.2488
lwrist 2.90657
lhand -16.9322 -7.34412
lfingers 7.12502
lthumb 9.30075 22.4307
rfemur -15.3925 -5.12577 24.1357
rtibia 34.8939
rfoot -15.5238 -18.4769
rtoes -2.48038
lfemur -15.3296 -0.980086 -20.8978
ltibia 31.7167
lfoot -13.7096 7.90486
ltoes -7.17151
719
root 1.62294 17.9687 33.5424 5.00524 0.166147 -1.26296
lowerback 2.92254 -0.857863 -3.67943
upperback -1.90812 -1.20282 3.36202
thorax -3.46806 -0.468516 5.63557
lowerneck -24.1006 1.91231 5.06883
upperneck 24.4706 2.64027 -6.29958
head 12.2416 0.796026 -2.78543
rclavicle 1.38155e-014 -4.37326e-014
rhumerus -37.9405 -10.7959 -72.7876
rradius 23.8
rwrist -0.238247
rhand -17.0538 -1.24895
rfingers 7.12502
rthumb 9.18347 -31.029
lclavicle 1.38155e-014 -4.37326e-014
lhumerus -35.7855 14.0382 82.2376
lradius 26.5461
lwrist 2.96347
lhand -16.8072 -6.96654
lfingers 7.12502
lthumb 9.42141 22.8029
rfemur -15.3624 -5.1621 24.4048
rtibia 34.6575
rfoot -15.4461 -18.3143
rtoes -2.56443
lfemur -15.4321 -1.12067 -20.6452
ltibia 31.7974
lfoot -13.7681 8.28412
ltoes -7.09401
720
root 1.60967 17.9722 33.5633 5.16099 0.095935 -1.48505
lowerback 2.71421 -0.885511 -3.34604
upperback -1.91902 -1.21761 3.45598
thorax -3.36352 -0.485482 5.53955
lowerneck -24.2721 1.96443 5.14036
upperneck 24.6003 2.69015 -6.31666
head 12.3311 0.819936 -2.79946
rclavicle 1.48592e-014 -1.59028e-014
rhumerus -37.8571 -10.5264 -72.933
rradius 24.1214
rwrist -0.731639
rhand -17.0771 -1.25654
rfingers 7.12502
rthumb 9.16091 -31.0376
lclavicle 1.48592e-014 -1.59028e-014
lhumerus -35.845 14.2889 82.2848
lradius 25.865
lwrist 3.02153
lhand -16.6126 -6.59389
lfingers 7.12502
lthumb 9.60915 23.167
rfemur -15.3458 -5.17493 24.7007
rtibia 34.4203
rfoot -15.3846 -18.1991
rtoes -2.61408
lfemur -15.556 -1.25128 -20.3695
ltibia 31.8859
lfoot -13.8442 8.6335
ltoes -7.00059
721
root 1.59658 17.9751 33.5834 5.32683 0.0390459 -1.7252
lowerback 2.49865 -0.916248 -3.00544
upperback -1.94159 -1.23732 3.56546
thorax -3.26656 -0.504191 5.45602
lowerneck -24.3959 2.01459 5.20493
upperneck 24.7117 2.74226 -6.33764
head 12.4044 0.844382 -2.81271
rclavicle 6.83322e-015 3.97569e-015
rhumerus -37.7661 -10.1919 -73.0861
rradius 24.4526
rwrist -1.24931
rhand -17.1154 -1.26382
rfingers 7.12502
rthumb 9.12398 -31.0465
lclavicle 6.83322e-015 3.97569e-015
lhumerus -35.9035 14.4363 82.3835
lradius 25.2032
lwrist 3.05889
lhand -16.368 -6.27237
lfingers 7.12502
lthumb 9.84513 23.4775
rfemur -15.3403 -5.15679 25.0226
rtibia 34.1832
rfoot -15.3337 -18.1331
rtoes -2.62715
lfemur -15.6923 -1.37962 -20.0726
ltibia 31.9751
lfoot -13.9272 8.96796
ltoes -6.88017
722
root 1.58364 17.9775 33.6028 5.49808 -0.00566489 -1.98314
lowerback 2.28821 -0.950563 -2.65486
upperback -1.96941 -1.26297 3.68569
thorax -3.17753 -0.525451 5.37856
lowerneck -24.5173 2.07577 5.28704
upperneck 24.8316 2.80793 -6.37291
head 12.4825 0.874618 -2.83226
rclavicle 5.06901e-015 7.95139e-016
rhumerus -37.6575 -9.82709 -73.2437
rradius 24.7911
rwrist -1.74481
rhand -17.1584 -1.27628
rfingers 7.12502
rthumb 9.08251 -31.0607
lclavicle 5.06901e-015 7.95139e-016
lhumerus -35.9487 14.4919 82.523
lradius 24.5654
lwrist 2.99865
lhand -16.0654 -6.00038
lfingers 7.12502
lthumb 10.1371 23.7354
rfemur -15.34 -5.11562 25.3696
rtibia 33.9425
rfoot -15.2865 -18.1091
rtoes -2.61949
lfemur -15.8373 -1.51298 -19.7563
ltibia 32.0679
lfoot -14.0125 9.30007
ltoes -6.7451
723
root 1.57117 17.9791 33.6207 5.60041 -0.053705 -2.20193
lowerback 2.17098 -0.975593 -2.34369
upperback -1.9848 -1.28049 3.79565
thorax -3.12897 -0.540942 5.31456
lowerneck -24.6288 2.13698 5.37407
upperneck 24.9411 2.87381 -6.41554
head 12.5551 0.904573 -2.85514
rclavicle 8.05078e-015 -1.90833e-014
rhumerus -37.5362 -9.44828 -73.3968
rradius 25.1343
rwrist -2.20642
rhand -17.2043 -1.31585
rfingers 7.12502
rthumb 9.03822 -31.1022
lclavicle 8.05078e-015 -1.90833e-014
lhumerus -35.9766 14.443 82.7104
lradius 23.9592
lwrist 2.8354
lhand -15.7011 -5.79297
lfingers 7.12502
lthumb 10.4885 23.9254
rfemur -15.2664 -5.04871 25.6681
rtibia 33.7017
rfoot -15.2489 -18.1221
rtoes -2.59359
lfemur -15.9075 -1.65757 -19.49
ltibia 32.1613
lfoot -14.0912 9.6512
ltoes -6.61338
724
root 1.55851 17.9804 33.6383 5.68424 -0.0893909 -2.42727
lowerback 2.07816 -1.00512 -2.04002
upperback -2.00232 -1.305 3.91286
thorax -3.0956 -0.559226 5.26346
lowerneck -24.6988 2.20615 5.48518
upperneck 25.0295 2.94915 -6.48015
head 12.6129 0.938714 -2.88824
rclavicle 4.72114e-015 -3.49861e-014
rhumerus -37.4072 -9.06305 -73.5399
rradius 25.4686
rwrist -2.60707
rhand -17.2478 -1.37031
rfingers 7.12502
rthumb 8.99622 -31.1585
lclavicle 4.72114e-015 -3.49861e-014
lhumerus -36.0114 14.3376 82.914
lradius 23.3867
lwrist 2.4748
lhand -15.2725 -5.68002
lfingers 7.12502
lthumb 10.9019 24.017
rfemur -15.17 -4.9714 25.975
rtibia 33.4586
rfoot -15.2119 -18.1648
rtoes -2.56669
lfemur -15.9663 -1.80069 -19.2198
ltibia 32.264
lfoot -14.1584 9.99902
ltoes -6.50408
